<mxfile host="65bd71144e">
    <diagram id="ecWeP_c15yosmuXLkrVg" name="Page-1">
        <mxGraphModel dx="1074" dy="805" grid="1" gridSize="10" guides="1" tooltips="1" connect="1" arrows="1" fold="1" page="1" pageScale="1" pageWidth="400" pageHeight="200" background="#FFFFFF" math="0" shadow="0">
            <root>
                <mxCell id="0"/>
                <mxCell id="1" parent="0"/>
                <mxCell id="-gOJLOOhkXJI9k3kvtUK-15" value="" style="edgeStyle=orthogonalEdgeStyle;rounded=0;orthogonalLoop=1;jettySize=auto;html=1;strokeColor=#000000;strokeWidth=2;" parent="1" source="3iusJpwzOvP_ydR6xsYw-2" target="-gOJLOOhkXJI9k3kvtUK-1" edge="1">
                    <mxGeometry relative="1" as="geometry"/>
                </mxCell>
                <mxCell id="3iusJpwzOvP_ydR6xsYw-2" value="Usuario" style="shape=umlActor;verticalLabelPosition=bottom;verticalAlign=top;html=1;outlineConnect=0;fontColor=#333333;fillColor=#B3B3B3;strokeColor=#666666;fontStyle=1" parent="1" vertex="1">
                    <mxGeometry x="60" y="77" width="30" height="60" as="geometry"/>
                </mxCell>
                <mxCell id="3iusJpwzOvP_ydR6xsYw-6" value="" style="edgeStyle=orthogonalEdgeStyle;rounded=0;orthogonalLoop=1;jettySize=auto;html=1;strokeWidth=2;strokeColor=#000000;" parent="1" source="3iusJpwzOvP_ydR6xsYw-4" target="3iusJpwzOvP_ydR6xsYw-5" edge="1">
                    <mxGeometry relative="1" as="geometry"/>
                </mxCell>
                <mxCell id="3iusJpwzOvP_ydR6xsYw-4" value="&lt;b&gt;API&lt;/b&gt;&lt;br&gt;(OpenWeatherMap)" style="ellipse;shape=cloud;whiteSpace=wrap;html=1;fillColor=#0000FF;strokeColor=#000000;fontColor=#000000;strokeWidth=2;" parent="1" vertex="1">
                    <mxGeometry x="580" y="42" width="165" height="130" as="geometry"/>
                </mxCell>
                <mxCell id="3iusJpwzOvP_ydR6xsYw-7" value="" style="edgeStyle=orthogonalEdgeStyle;rounded=0;orthogonalLoop=1;jettySize=auto;html=1;entryX=1;entryY=0.5;entryDx=0;entryDy=0;strokeWidth=2;strokeColor=#000000;" parent="1" source="3iusJpwzOvP_ydR6xsYw-5" target="-gOJLOOhkXJI9k3kvtUK-1" edge="1">
                    <mxGeometry relative="1" as="geometry">
                        <mxPoint x="288" y="107" as="targetPoint"/>
                    </mxGeometry>
                </mxCell>
                <mxCell id="-gOJLOOhkXJI9k3kvtUK-19" value="" style="edgeStyle=orthogonalEdgeStyle;rounded=0;orthogonalLoop=1;jettySize=auto;html=1;strokeColor=#000000;strokeWidth=2;" parent="1" source="3iusJpwzOvP_ydR6xsYw-5" target="3iusJpwzOvP_ydR6xsYw-4" edge="1">
                    <mxGeometry relative="1" as="geometry"/>
                </mxCell>
                <mxCell id="3iusJpwzOvP_ydR6xsYw-5" value="Wrapper&lt;br&gt;(&lt;b&gt;PyOWM&lt;/b&gt;)&lt;br&gt;&lt;br&gt;&lt;br&gt;&lt;br&gt;&lt;br&gt;&lt;br&gt;" style="whiteSpace=wrap;html=1;aspect=fixed;align=center;fillColor=#00FF00;strokeColor=#000000;fontColor=#000000;strokeWidth=2;" parent="1" vertex="1">
                    <mxGeometry x="360" y="27" width="160" height="160" as="geometry"/>
                </mxCell>
                <mxCell id="3iusJpwzOvP_ydR6xsYw-3" value="&lt;i&gt;SQLite3&lt;/i&gt;" style="shape=cylinder3;whiteSpace=wrap;html=1;boundedLbl=1;backgroundOutline=1;size=15;fillColor=#FF0000;strokeColor=#000000;fontColor=#000000;strokeWidth=2;" parent="1" vertex="1">
                    <mxGeometry x="410" y="92" width="60" height="80" as="geometry"/>
                </mxCell>
                <mxCell id="-gOJLOOhkXJI9k3kvtUK-2" value="" style="edgeStyle=orthogonalEdgeStyle;rounded=0;orthogonalLoop=1;jettySize=auto;html=1;strokeColor=#000000;strokeWidth=2;" parent="1" source="-gOJLOOhkXJI9k3kvtUK-1" target="3iusJpwzOvP_ydR6xsYw-2" edge="1">
                    <mxGeometry relative="1" as="geometry"/>
                </mxCell>
                <mxCell id="-gOJLOOhkXJI9k3kvtUK-18" value="" style="edgeStyle=orthogonalEdgeStyle;rounded=0;orthogonalLoop=1;jettySize=auto;html=1;strokeColor=#000000;strokeWidth=2;" parent="1" source="-gOJLOOhkXJI9k3kvtUK-1" target="3iusJpwzOvP_ydR6xsYw-5" edge="1">
                    <mxGeometry relative="1" as="geometry"/>
                </mxCell>
                <mxCell id="3" value="" style="edgeStyle=none;html=1;fontColor=#000000;strokeColor=#000000;strokeWidth=2;" parent="1" source="-gOJLOOhkXJI9k3kvtUK-1" target="3iusJpwzOvP_ydR6xsYw-2" edge="1">
                    <mxGeometry relative="1" as="geometry"/>
                </mxCell>
                <mxCell id="-gOJLOOhkXJI9k3kvtUK-1" value="Proyecto&lt;br&gt;(&lt;b&gt;analisis-meteorologico&lt;/b&gt;)" style="rounded=0;whiteSpace=wrap;html=1;fillColor=#FF8000;strokeColor=#000000;fontColor=#000000;strokeWidth=2;" parent="1" vertex="1">
                    <mxGeometry x="160" y="77" width="120" height="60" as="geometry"/>
                </mxCell>
                <mxCell id="-gOJLOOhkXJI9k3kvtUK-20" value="" style="edgeStyle=orthogonalEdgeStyle;rounded=0;orthogonalLoop=1;jettySize=auto;html=1;strokeColor=#000000;strokeWidth=2;" parent="1" source="-gOJLOOhkXJI9k3kvtUK-3" target="-gOJLOOhkXJI9k3kvtUK-10" edge="1">
                    <mxGeometry relative="1" as="geometry"/>
                </mxCell>
                <mxCell id="-gOJLOOhkXJI9k3kvtUK-3" value="Usuario" style="shape=umlActor;verticalLabelPosition=bottom;verticalAlign=top;html=1;outlineConnect=0;fontColor=#333333;fillColor=#B3B3B3;strokeColor=#666666;fontStyle=1" parent="1" vertex="1">
                    <mxGeometry x="60" y="277" width="30" height="60" as="geometry"/>
                </mxCell>
                <mxCell id="-gOJLOOhkXJI9k3kvtUK-5" value="&lt;b&gt;API&lt;/b&gt;&lt;br&gt;(OpenWeatherMap)" style="ellipse;shape=cloud;whiteSpace=wrap;html=1;fillColor=#0000FF;strokeColor=#000000;fontColor=#000000;strokeWidth=2;" parent="1" vertex="1">
                    <mxGeometry x="580" y="242" width="165" height="130" as="geometry"/>
                </mxCell>
                <mxCell id="-gOJLOOhkXJI9k3kvtUK-6" value="" style="edgeStyle=orthogonalEdgeStyle;rounded=0;orthogonalLoop=1;jettySize=auto;html=1;entryX=1;entryY=0.5;entryDx=0;entryDy=0;strokeWidth=2;strokeColor=#000000;" parent="1" source="-gOJLOOhkXJI9k3kvtUK-5" target="-gOJLOOhkXJI9k3kvtUK-10" edge="1">
                    <mxGeometry relative="1" as="geometry">
                        <mxPoint x="288" y="307" as="targetPoint"/>
                        <mxPoint x="360" y="307" as="sourcePoint"/>
                    </mxGeometry>
                </mxCell>
                <mxCell id="-gOJLOOhkXJI9k3kvtUK-9" value="" style="edgeStyle=orthogonalEdgeStyle;rounded=0;orthogonalLoop=1;jettySize=auto;html=1;strokeColor=#000000;" parent="1" source="-gOJLOOhkXJI9k3kvtUK-10" target="-gOJLOOhkXJI9k3kvtUK-3" edge="1">
                    <mxGeometry relative="1" as="geometry"/>
                </mxCell>
                <mxCell id="-gOJLOOhkXJI9k3kvtUK-25" style="edgeStyle=orthogonalEdgeStyle;rounded=0;orthogonalLoop=1;jettySize=auto;html=1;strokeColor=#000000;strokeWidth=2;" parent="1" source="-gOJLOOhkXJI9k3kvtUK-10" target="-gOJLOOhkXJI9k3kvtUK-5" edge="1">
                    <mxGeometry relative="1" as="geometry"/>
                </mxCell>
                <mxCell id="2" value="" style="edgeStyle=none;html=1;fontColor=#000000;strokeColor=#000000;strokeWidth=2;" parent="1" source="-gOJLOOhkXJI9k3kvtUK-10" target="-gOJLOOhkXJI9k3kvtUK-3" edge="1">
                    <mxGeometry relative="1" as="geometry"/>
                </mxCell>
                <mxCell id="-gOJLOOhkXJI9k3kvtUK-10" value="Proyecto&lt;br&gt;(&lt;b&gt;analisis-meteorologico&lt;/b&gt;)" style="rounded=0;whiteSpace=wrap;html=1;fillColor=#FF8000;strokeColor=#000000;fontColor=#000000;strokeWidth=2;" parent="1" vertex="1">
                    <mxGeometry x="160" y="277" width="120" height="60" as="geometry"/>
                </mxCell>
                <mxCell id="-gOJLOOhkXJI9k3kvtUK-11" value="" style="endArrow=none;html=1;rounded=0;strokeColor=#000000;strokeWidth=2;" parent="1" edge="1">
                    <mxGeometry width="50" height="50" relative="1" as="geometry">
                        <mxPoint x="40" y="227" as="sourcePoint"/>
                        <mxPoint x="760" y="227" as="targetPoint"/>
                    </mxGeometry>
                </mxCell>
                <mxCell id="-gOJLOOhkXJI9k3kvtUK-12" value="Peticiones &lt;b&gt;HTTP&lt;/b&gt;&lt;br&gt;(Requests)" style="text;html=1;align=center;verticalAlign=middle;resizable=0;points=[];autosize=1;strokeColor=none;fillColor=none;fontColor=#000000;" parent="1" vertex="1">
                    <mxGeometry x="385" y="327" width="110" height="30" as="geometry"/>
                </mxCell>
                <mxCell id="-gOJLOOhkXJI9k3kvtUK-13" value="&lt;b&gt;&lt;i&gt;GET&lt;/i&gt;&lt;/b&gt; https://api.openweathermap.org/data/2.5/weather?lat={lat}&amp;amp;lon={lon}&amp;amp;appid={API key}" style="text;html=1;strokeColor=none;fillColor=none;align=center;verticalAlign=middle;whiteSpace=wrap;rounded=0;fontColor=#000000;" parent="1" vertex="1">
                    <mxGeometry x="295" y="237" width="290" height="60" as="geometry"/>
                </mxCell>
            </root>
        </mxGraphModel>
    </diagram>
</mxfile>